<svg width="16" height="16" viewBox="0 0 16 16" fill="none" xmlns="http://www.w3.org/2000/svg">
<path d="M8.00065 11.3335C8.18954 11.3335 8.34787 11.2696 8.47565 11.1418C8.60343 11.0141 8.66732 10.8557 8.66732 10.6668C8.66732 10.4779 8.60343 10.3196 8.47565 10.1918C8.34787 10.0641 8.18954 10.0002 8.00065 10.0002C7.81176 10.0002 7.65343 10.0641 7.52565 10.1918C7.39787 10.3196 7.33398 10.4779 7.33398 10.6668C7.33398 10.8557 7.39787 11.0141 7.52565 11.1418C7.65343 11.2696 7.81176 11.3335 8.00065 11.3335ZM7.33398 8.66683H8.66732V4.66683H7.33398V8.66683ZM8.00065 14.6668C7.07843 14.6668 6.21176 14.4918 5.40065 14.1418C4.58954 13.7918 3.88398 13.3168 3.28398 12.7168C2.68398 12.1168 2.20898 11.4113 1.85898 10.6002C1.50898 9.78905 1.33398 8.92238 1.33398 8.00016C1.33398 7.07794 1.50898 6.21127 1.85898 5.40016C2.20898 4.58905 2.68398 3.8835 3.28398 3.2835C3.88398 2.6835 4.58954 2.2085 5.40065 1.8585C6.21176 1.5085 7.07843 1.3335 8.00065 1.3335C8.92287 1.3335 9.78954 1.5085 10.6007 1.8585C11.4118 2.2085 12.1173 2.6835 12.7173 3.2835C13.3173 3.8835 13.7923 4.58905 14.1423 5.40016C14.4923 6.21127 14.6673 7.07794 14.6673 8.00016C14.6673 8.92238 14.4923 9.78905 14.1423 10.6002C13.7923 11.4113 13.3173 12.1168 12.7173 12.7168C12.1173 13.3168 11.4118 13.7918 10.6007 14.1418C9.78954 14.4918 8.92287 14.6668 8.00065 14.6668ZM8.00065 13.3335C9.48954 13.3335 10.7507 12.8168 11.784 11.7835C12.8173 10.7502 13.334 9.48905 13.334 8.00016C13.334 6.51127 12.8173 5.25016 11.784 4.21683C10.7507 3.1835 9.48954 2.66683 8.00065 2.66683C6.51176 2.66683 5.25065 3.1835 4.21732 4.21683C3.18398 5.25016 2.66732 6.51127 2.66732 8.00016C2.66732 9.48905 3.18398 10.7502 4.21732 11.7835C5.25065 12.8168 6.51176 13.3335 8.00065 13.3335Z" fill="#D72C0D"/>
</svg>
