<svg width="40" height="40" viewBox="0 0 40 40" fill="none" xmlns="http://www.w3.org/2000/svg">
<rect width="40" height="40" rx="20" fill="#F2DCD1"/>
<path d="M20 10.4375C18.1087 10.4375 16.2599 10.9983 14.6874 12.0491C13.1148 13.0998 11.8892 14.5933 11.1654 16.3406C10.4416 18.0879 10.2523 20.0106 10.6212 21.8656C10.9902 23.7205 11.901 25.4244 13.2383 26.7617C14.5756 28.099 16.2795 29.0098 18.1345 29.3788C19.9894 29.7477 21.9121 29.5584 23.6594 28.8346C25.4067 28.1108 26.9002 26.8852 27.9509 25.3126C29.0017 23.7401 29.5625 21.8913 29.5625 20C29.5595 17.4648 28.5511 15.0343 26.7584 13.2416C24.9658 11.4489 22.5352 10.4405 20 10.4375ZM20 28.4375C18.3312 28.4375 16.6999 27.9426 15.3124 27.0155C13.9248 26.0884 12.8434 24.7706 12.2048 23.2289C11.5662 21.6871 11.3991 19.9906 11.7246 18.3539C12.0502 16.7172 12.8538 15.2138 14.0338 14.0338C15.2138 12.8538 16.7172 12.0502 18.3539 11.7246C19.9906 11.3991 21.6871 11.5662 23.2289 12.2048C24.7706 12.8434 26.0884 13.9248 27.0155 15.3124C27.9427 16.6999 28.4375 18.3312 28.4375 20C28.435 22.237 27.5453 24.3817 25.9635 25.9635C24.3817 27.5453 22.237 28.435 20 28.4375ZM24.3125 20C24.3125 20.1492 24.2532 20.2923 24.1478 20.3977C24.0423 20.5032 23.8992 20.5625 23.75 20.5625H20.5625V23.75C20.5625 23.8992 20.5032 24.0423 20.3978 24.1477C20.2923 24.2532 20.1492 24.3125 20 24.3125C19.8508 24.3125 19.7077 24.2532 19.6023 24.1477C19.4968 24.0423 19.4375 23.8992 19.4375 23.75V20.5625H16.25C16.1008 20.5625 15.9577 20.5032 15.8523 20.3977C15.7468 20.2923 15.6875 20.1492 15.6875 20C15.6875 19.8508 15.7468 19.7077 15.8523 19.6023C15.9577 19.4968 16.1008 19.4375 16.25 19.4375H19.4375V16.25C19.4375 16.1008 19.4968 15.9577 19.6023 15.8523C19.7077 15.7468 19.8508 15.6875 20 15.6875C20.1492 15.6875 20.2923 15.7468 20.3978 15.8523C20.5032 15.9577 20.5625 16.1008 20.5625 16.25V19.4375H23.75C23.8992 19.4375 24.0423 19.4968 24.1478 19.6023C24.2532 19.7077 24.3125 19.8508 24.3125 20Z" fill="black"/>
</svg>
