<svg width="24" height="24" viewBox="0 0 24 24" fill="none" xmlns="http://www.w3.org/2000/svg">
<rect x="0.375" y="0.375" width="23.25" height="23.25" rx="11.625" fill="white"/>
<rect x="0.375" y="0.375" width="23.25" height="23.25" rx="11.625" stroke="#F2F2F2" stroke-width="0.75"/>
<g clip-path="url(#clip0_15719_60824)">
<path d="M14.3438 7.59375C13.3594 7.59375 12.5034 8.03766 12 8.78156C11.4966 8.03766 10.6406 7.59375 9.65625 7.59375C8.9106 7.59462 8.19573 7.89121 7.66847 8.41847C7.14121 8.94573 6.84462 9.6606 6.84375 10.4062C6.84375 11.775 7.69687 13.1995 9.37969 14.6395C10.1508 15.2966 10.9838 15.8774 11.8669 16.3739C11.9078 16.3959 11.9535 16.4074 12 16.4074C12.0465 16.4074 12.0922 16.3959 12.1331 16.3739C13.0162 15.8774 13.8492 15.2966 14.6203 14.6395C16.3031 13.1995 17.1562 11.775 17.1562 10.4062C17.1554 9.6606 16.8588 8.94573 16.3315 8.41847C15.8043 7.89121 15.0894 7.59462 14.3438 7.59375ZM12 15.802C11.2308 15.3581 7.40625 13.0181 7.40625 10.4062C7.40687 9.8097 7.64412 9.23777 8.06595 8.81595C8.48777 8.39412 9.0597 8.15687 9.65625 8.15625C10.6069 8.15625 11.4052 8.66391 11.7398 9.48141C11.761 9.53299 11.7971 9.57711 11.8434 9.60816C11.8897 9.63921 11.9442 9.65579 12 9.65579C12.0558 9.65579 12.1103 9.63921 12.1566 9.60816C12.2029 9.57711 12.239 9.53299 12.2602 9.48141C12.5948 8.66391 13.3931 8.15625 14.3438 8.15625C14.9403 8.15687 15.5122 8.39412 15.9341 8.81595C16.3559 9.23777 16.5931 9.8097 16.5938 10.4062C16.5938 13.0181 12.7692 15.3581 12 15.802Z" fill="#333333"/>
</g>
<defs>
<clipPath id="clip0_15719_60824">
<rect width="12" height="12" fill="white" transform="translate(6 6)"/>
</clipPath>
</defs>
</svg>
