<svg width="20" height="20" viewBox="0 0 20 20" fill="none" xmlns="http://www.w3.org/2000/svg">
<path d="M10 12.9688C10.5872 12.9688 11.1611 12.7946 11.6493 12.4684C12.1376 12.1422 12.5181 11.6786 12.7428 11.1361C12.9675 10.5936 13.0263 9.99671 12.9117 9.42083C12.7972 8.84494 12.5144 8.31596 12.0992 7.90078C11.684 7.48559 11.1551 7.20284 10.5792 7.08829C10.0033 6.97374 9.40638 7.03254 8.86391 7.25723C8.32144 7.48193 7.85778 7.86244 7.53157 8.35065C7.20536 8.83886 7.03125 9.41284 7.03125 10C7.03125 10.7874 7.34403 11.5425 7.90078 12.0992C8.45753 12.656 9.21264 12.9688 10 12.9688ZM10 7.96875C10.4017 7.96875 10.7945 8.08788 11.1285 8.31108C11.4625 8.53427 11.7229 8.85151 11.8766 9.22267C12.0304 9.59384 12.0706 10.0023 11.9922 10.3963C11.9138 10.7903 11.7204 11.1522 11.4363 11.4363C11.1522 11.7204 10.7903 11.9138 10.3963 11.9922C10.0023 12.0706 9.59384 12.0304 9.22267 11.8766C8.85151 11.7229 8.53427 11.4625 8.31108 11.1285C8.08788 10.7945 7.96875 10.4017 7.96875 10C7.96875 9.46128 8.18276 8.94462 8.56369 8.56369C8.94462 8.18276 9.46128 7.96875 10 7.96875ZM18.75 4.53125H1.25C1.12568 4.53125 1.00645 4.58064 0.918544 4.66854C0.830636 4.75645 0.78125 4.87568 0.78125 5V15C0.78125 15.1243 0.830636 15.2436 0.918544 15.3315C1.00645 15.4194 1.12568 15.4688 1.25 15.4688H18.75C18.8743 15.4688 18.9935 15.4194 19.0815 15.3315C19.1694 15.2436 19.2188 15.1243 19.2188 15V5C19.2188 4.87568 19.1694 4.75645 19.0815 4.66854C18.9935 4.58064 18.8743 4.53125 18.75 4.53125ZM1.71875 8.50156C2.44659 8.30794 3.11037 7.92549 3.64293 7.39293C4.17549 6.86037 4.55794 6.19659 4.75156 5.46875H15.2484C15.4421 6.19659 15.8245 6.86037 16.3571 7.39293C16.8896 7.92549 17.5534 8.30794 18.2812 8.50156V11.4984C17.5534 11.6921 16.8896 12.0745 16.3571 12.6071C15.8245 13.1396 15.4421 13.8034 15.2484 14.5313H4.75156C4.55794 13.8034 4.17549 13.1396 3.64293 12.6071C3.11037 12.0745 2.44659 11.6921 1.71875 11.4984V8.50156ZM18.2812 7.52266C17.8065 7.3568 17.3752 7.08598 17.0196 6.73037C16.664 6.37476 16.3932 5.94352 16.2273 5.46875H18.2812V7.52266ZM3.77266 5.46875C3.6068 5.94352 3.33598 6.37476 2.98037 6.73037C2.62476 7.08598 2.19352 7.3568 1.71875 7.52266V5.46875H3.77266ZM1.71875 12.4773C2.19352 12.6432 2.62476 12.914 2.98037 13.2696C3.33598 13.6252 3.6068 14.0565 3.77266 14.5313H1.71875V12.4773ZM16.2273 14.5313C16.3932 14.0565 16.664 13.6252 17.0196 13.2696C17.3752 12.914 17.8065 12.6432 18.2812 12.4773V14.5313H16.2273Z" fill="#CA7E4C"/>
</svg>
